<svg xmlns="http://www.w3.org/2000/svg" viewBox="0 0 96 96" fill="none" data-icon="abacus" style="color:var(--sk-ink,#1E1E28)">
  <g class="fills" stroke="none">
    <g class="fill" data-region="paper">
      <rect x="18" y="18" width="60" height="60" rx="6" fill="var(--sk-paper, #FFFFFF)"/>
    </g>
    <g class="fill" data-region="c1">
      <circle cx="34" cy="28" r="5" fill="var(--sk-c1, #FF6B5B)"/>
    </g>
    <g class="fill" data-region="c2">
      <circle cx="50" cy="28" r="5" fill="var(--sk-c2, #339AF0)"/>
    </g>
    <g class="fill" data-region="c1">
      <circle cx="62" cy="28" r="5" fill="var(--sk-c1, #FF6B5B)"/>
    </g>
    <g class="fill" data-region="c2">
      <circle cx="30" cy="48" r="5" fill="var(--sk-c2, #339AF0)"/>
    </g>
    <g class="fill" data-region="c1">
      <circle cx="46" cy="48" r="5" fill="var(--sk-c1, #FF6B5B)"/>
    </g>
    <g class="fill" data-region="c2">
      <circle cx="66" cy="48" r="5" fill="var(--sk-c2, #339AF0)"/>
    </g>
    <g class="fill" data-region="c1">
      <circle cx="38" cy="68" r="5" fill="var(--sk-c1, #FF6B5B)"/>
    </g>
    <g class="fill" data-region="c2">
      <circle cx="54" cy="68" r="5" fill="var(--sk-c2, #339AF0)"/>
    </g>
    <g class="fill" data-region="c1">
      <circle cx="66" cy="68" r="5" fill="var(--sk-c1, #FF6B5B)"/>
    </g>
  </g>
  <g class="ink" fill="none" stroke="currentColor" stroke-width="5" stroke-linecap="round" stroke-linejoin="round">
    <rect x="18" y="18" width="60" height="60" rx="6"/>
    <line x1="18" y1="38" x2="78" y2="38"/>
    <line x1="18" y1="58" x2="78" y2="58"/>
    <circle cx="34" cy="28" r="5"/>
    <circle cx="50" cy="28" r="5"/>
    <circle cx="62" cy="28" r="5"/>
    <circle cx="30" cy="48" r="5"/>
    <circle cx="46" cy="48" r="5"/>
    <circle cx="66" cy="48" r="5"/>
    <circle cx="38" cy="68" r="5"/>
    <circle cx="54" cy="68" r="5"/>
    <circle cx="66" cy="68" r="5"/>
  </g>
</svg>
