<svg xmlns="http://www.w3.org/2000/svg" viewBox="0 0 96 96" fill="none" data-icon="airplane" style="color:var(--sk-ink,#1E1E28)">
  <g class="fills" stroke="none">
    <g class="fill" data-region="c1">
      <path d="M78 30 C82 34 78 40 70 42 L52 46 L38 74 H30 L38 48 L22 52 L16 62 H10 L16 46 L10 30 H16 L22 40 L38 44 L50 42 L62 24 H70 L62 44 Z" fill="var(--sk-c1, #339AF0)"/>
    </g>
  </g>
  <g class="ink" fill="none" stroke="currentColor" stroke-width="5" stroke-linecap="round" stroke-linejoin="round">
    <path d="M78 30 C82 34 78 40 70 42 L52 46 L38 74 H30 L38 48 L22 52 L16 62 H10 L16 46 L10 30 H16 L22 40 L38 44 L50 42 L62 24 H70 L62 44 Z"/>
  </g>
</svg>
