<svg xmlns="http://www.w3.org/2000/svg" viewBox="0 0 96 96" fill="none" data-icon="apple" style="color:var(--sk-ink,#1E1E28)">
  <g class="fills" stroke="none">
    <g class="fill" data-region="c1">
      <path d="M48 30 C40 22 24 26 24 44 C24 62 38 78 48 78 C58 78 72 62 72 44 C72 26 56 22 48 30 Z" fill="var(--sk-c1, #FF6B5B)"/>
    </g>
  </g>
  <g class="ink" fill="none" stroke="currentColor" stroke-width="5" stroke-linecap="round" stroke-linejoin="round">
    <path d="M48 30 C40 22 24 26 24 44 C24 62 38 78 48 78 C58 78 72 62 72 44 C72 26 56 22 48 30 Z"/>
    <path d="M48 30 C50 20 58 16 64 18" stroke="var(--sk-c2, #40C057)" stroke-width="4"/>
  </g>
</svg>
