<svg xmlns="http://www.w3.org/2000/svg" viewBox="0 0 96 96" fill="none" data-icon="apple-fruit" style="color:var(--sk-ink,#1E1E28)">
  <g class="fills" stroke="none">
    <g class="fill" data-region="c1">
      <path d="M48 32 C30 20 16 42 26 62 C32 76 44 80 48 74 C52 80 64 76 70 62 C80 42 66 20 48 32 Z" fill="var(--sk-c1, #FF6B5B)"/>
    </g>
    <g class="fill" data-region="c2">
      <path d="M52 20 C62 14 66 22 58 26" fill="var(--sk-c2, #40C057)"/>
    </g>
  </g>
  <g class="ink" fill="none" stroke="currentColor" stroke-width="5" stroke-linecap="round" stroke-linejoin="round">
    <path d="M48 32 C30 20 16 42 26 62 C32 76 44 80 48 74 C52 80 64 76 70 62 C80 42 66 20 48 32 Z"/>
    <path d="M48 32 L52 18" stroke="currentColor" stroke-width="4"/>
    <path d="M52 20 C62 14 66 22 58 26"/>
  </g>
</svg>
