<svg xmlns="http://www.w3.org/2000/svg" viewBox="0 0 96 96" fill="none" data-icon="bone" style="color:var(--sk-ink,#1E1E28)">
  <g class="fills" stroke="none">
    <g class="fill" data-region="paper">
      <path d="M28 68 C18 68 18 56 26 56 C22 48 32 40 40 48 L56 32 C48 24 58 14 62 24 C72 24 72 36 64 36 C68 44 58 52 50 44 L34 60 C42 68 32 78 28 68 Z" fill="var(--sk-paper, #FFFFFF)"/>
    </g>
  </g>
  <g class="ink" fill="none" stroke="currentColor" stroke-width="5" stroke-linecap="round" stroke-linejoin="round">
    <path d="M28 68 C18 68 18 56 26 56 C22 48 32 40 40 48 L56 32 C48 24 58 14 62 24 C72 24 72 36 64 36 C68 44 58 52 50 44 L34 60 C42 68 32 78 28 68 Z"/>
  </g>
</svg>
