<svg xmlns="http://www.w3.org/2000/svg" viewBox="0 0 96 96" fill="none" data-icon="book" style="color:var(--sk-ink,#1E1E28)">
  <g class="fills" stroke="none">
    <g class="fill" data-region="c1">
      <path d="M16 24 C28 18 44 18 48 24 V78 C44 72 28 72 16 78 Z" fill="var(--sk-c1, #6C5CE7)"/>
      <path d="M80 24 C68 18 52 18 48 24 V78 C52 72 68 72 80 78 Z" fill="var(--sk-c1, #6C5CE7)"/>
    </g>
  </g>
  <g class="ink" fill="none" stroke="currentColor" stroke-width="5" stroke-linecap="round" stroke-linejoin="round">
    <path d="M16 24 C28 18 44 18 48 24 V78 C44 72 28 72 16 78 Z"/>
    <path d="M80 24 C68 18 52 18 48 24 V78 C52 72 68 72 80 78 Z"/>
    <line x1="48" y1="24" x2="48" y2="78"/>
  </g>
</svg>
