<svg xmlns="http://www.w3.org/2000/svg" viewBox="0 0 96 96" fill="none" data-icon="brain" style="color:var(--sk-ink,#1E1E28)">
  <g class="fills" stroke="none">
    <g class="fill" data-region="c1">
      <path d="M46 20 C30 18 22 32 28 42 C18 50 24 66 38 66 C40 78 56 78 56 66 V22 C54 18 50 18 46 20 Z" fill="var(--sk-c1, #E8538F)"/>
    </g>
  </g>
  <g class="ink" fill="none" stroke="currentColor" stroke-width="5" stroke-linecap="round" stroke-linejoin="round">
    <path d="M46 20 C30 18 22 32 28 42 C18 50 24 66 38 66 C40 78 56 78 56 66 V22 C54 18 50 18 46 20 Z"/>
    <path d="M56 24 C72 20 80 34 72 44 C82 52 74 68 60 66" stroke-width="5"/>
    <path d="M40 34 C48 34 48 44 40 44" stroke-width="4"/>
  </g>
</svg>
