<svg xmlns="http://www.w3.org/2000/svg" viewBox="0 0 96 96" fill="none" data-icon="call" style="color:var(--sk-ink,#1E1E28)">
  <g class="fills" stroke="none">
    <g class="fill" data-region="c1">
      <path d="M26 22 C22 22 18 26 20 36 C26 60 40 74 64 80 C74 82 78 78 78 74 L78 62 L62 56 L56 64 C48 60 42 54 38 46 L46 40 L40 24 Z" fill="var(--sk-c1, #40C057)"/>
    </g>
  </g>
  <g class="ink" fill="none" stroke="currentColor" stroke-width="5" stroke-linecap="round" stroke-linejoin="round">
    <path d="M26 22 C22 22 18 26 20 36 C26 60 40 74 64 80 C74 82 78 78 78 74 L78 62 L62 56 L56 64 C48 60 42 54 38 46 L46 40 L40 24 Z"/>
  </g>
</svg>
