<svg xmlns="http://www.w3.org/2000/svg" viewBox="0 0 96 96" fill="none" data-icon="castle" style="color:var(--sk-ink,#1E1E28)">
  <g class="fills" stroke="none">
    <g class="fill" data-region="c1">
      <path d="M18 78 L18 40 L26 40 L26 32 L34 32 L34 40 L42 40 L42 32 L54 32 L54 40 L62 40 L62 32 L70 32 L70 40 L78 40 L78 78 Z" fill="var(--sk-c1, #8A8F98)"/>
    </g>
    <g class="fill" data-region="paper">
      <rect x="40" y="58" width="16" height="20" fill="var(--sk-paper, #FFFFFF)"/>
    </g>
    <g class="fill" data-region="c2">
      <path d="M48 18 L60 22 L48 26" fill="var(--sk-c2, #339AF0)"/>
    </g>
  </g>
  <g class="ink" fill="none" stroke="currentColor" stroke-width="5" stroke-linecap="round" stroke-linejoin="round">
    <path d="M18 78 L18 40 L26 40 L26 32 L34 32 L34 40 L42 40 L42 32 L54 32 L54 40 L62 40 L62 32 L70 32 L70 40 L78 40 L78 78 Z"/>
    <rect x="40" y="58" width="16" height="20"/>
    <line x1="48" y1="32" x2="48" y2="18"/>
    <path d="M48 18 L60 22 L48 26"/>
  </g>
</svg>
