<svg xmlns="http://www.w3.org/2000/svg" viewBox="0 0 96 96" fill="none" data-icon="coupon" style="color:var(--sk-ink,#1E1E28)">
  <g class="fills" stroke="none">
    <g class="fill" data-region="c1">
      <path d="M14 34 L82 34 L82 46 A6 6 0 0 0 82 62 L82 74 L14 74 L14 62 A6 6 0 0 0 14 46 Z" fill="var(--sk-c1, #FF6B5B)"/>
    </g>
    <g class="fill" data-region="paper">
      <circle cx="58" cy="54" r="6" fill="var(--sk-paper, #FFFFFF)"/>
    </g>
  </g>
  <g class="ink" fill="none" stroke="currentColor" stroke-width="5" stroke-linecap="round" stroke-linejoin="round">
    <path d="M14 34 L82 34 L82 46 A6 6 0 0 0 82 62 L82 74 L14 74 L14 62 A6 6 0 0 0 14 46 Z"/>
    <line x1="40" y1="44" x2="40" y2="64" stroke="var(--sk-paper, #FFFFFF)" stroke-width="3"/>
    <circle cx="58" cy="54" r="6"/>
  </g>
</svg>
