<svg xmlns="http://www.w3.org/2000/svg" viewBox="0 0 96 96" fill="none" data-icon="crowd" style="color:var(--sk-ink,#1E1E28)">
  <g class="fills" stroke="none">
    <g class="fill" data-region="c2">
      <circle cx="24" cy="34" r="9" fill="var(--sk-c2, #FF922B)"/>
      <path d="M10 66 C10 52 17 46 24 46 C31 46 38 52 38 66 Z" fill="var(--sk-c2, #FF922B)"/>
      <circle cx="72" cy="34" r="9" fill="var(--sk-c2, #FF922B)"/>
      <path d="M58 66 C58 52 65 46 72 46 C79 46 86 52 86 66 Z" fill="var(--sk-c2, #FF922B)"/>
    </g>
    <g class="fill" data-region="c1">
      <circle cx="48" cy="30" r="11" fill="var(--sk-c1, #339AF0)"/>
      <path d="M30 72 C30 56 38 48 48 48 C58 48 66 56 66 72 Z" fill="var(--sk-c1, #339AF0)"/>
    </g>
  </g>
  <g class="ink" fill="none" stroke="currentColor" stroke-width="5" stroke-linecap="round" stroke-linejoin="round">
    <circle cx="24" cy="34" r="9"/>
    <path d="M10 66 C10 52 17 46 24 46 C31 46 38 52 38 66 Z"/>
    <circle cx="72" cy="34" r="9"/>
    <path d="M58 66 C58 52 65 46 72 46 C79 46 86 52 86 66 Z"/>
    <circle cx="48" cy="30" r="11"/>
    <path d="M30 72 C30 56 38 48 48 48 C58 48 66 56 66 72 Z"/>
  </g>
</svg>
