<svg xmlns="http://www.w3.org/2000/svg" viewBox="0 0 96 96" fill="none" data-icon="feedback" style="color:var(--sk-ink,#1E1E28)">
  <g class="fills" stroke="none">
    <g class="fill" data-region="c1">
      <path d="M18 24 L78 24 L78 60 L44 60 L28 74 L28 60 L18 60 Z" fill="var(--sk-c1, #FFC933)"/>
    </g>
    <g class="fill" data-region="paper">
      <path d="M48 32 L50.65 38.36 L57.51 38.91 L52.28 43.39 L53.88 50.09 L48 46.5 L42.12 50.09 L43.72 43.39 L38.49 38.91 L45.35 38.36 Z" fill="var(--sk-paper, #FFFFFF)"/>
    </g>
  </g>
  <g class="ink" fill="none" stroke="currentColor" stroke-width="5" stroke-linecap="round" stroke-linejoin="round">
    <path d="M18 24 L78 24 L78 60 L44 60 L28 74 L28 60 L18 60 Z"/>
    <path d="M48 32 L50.65 38.36 L57.51 38.91 L52.28 43.39 L53.88 50.09 L48 46.5 L42.12 50.09 L43.72 43.39 L38.49 38.91 L45.35 38.36 Z"/>
  </g>
</svg>
