<svg xmlns="http://www.w3.org/2000/svg" viewBox="0 0 96 96" fill="none" data-icon="fire" style="color:var(--sk-ink,#1E1E28)">
  <g class="fills" stroke="none">
    <g class="fill" data-region="c1">
      <path d="M48 14 C64 30 72 46 62 64 C58 74 38 74 34 64 C28 52 36 46 40 50 C36 34 48 26 48 14 Z" fill="var(--sk-c1, #FF6B5B)"/>
    </g>
    <g class="fill" data-region="c2">
      <path d="M48 46 C56 54 56 64 48 68 C42 66 42 58 48 46 Z" fill="var(--sk-c2, #FFC933)"/>
    </g>
  </g>
  <g class="ink" fill="none" stroke="currentColor" stroke-width="5" stroke-linecap="round" stroke-linejoin="round">
    <path d="M48 14 C64 30 72 46 62 64 C58 74 38 74 34 64 C28 52 36 46 40 50 C36 34 48 26 48 14 Z"/>
    <path d="M48 46 C56 54 56 64 48 68 C42 66 42 58 48 46 Z"/>
  </g>
</svg>
