<svg xmlns="http://www.w3.org/2000/svg" viewBox="0 0 96 96" fill="none" data-icon="flask" style="color:var(--sk-ink,#1E1E28)">
  <g class="fills" stroke="none">
    <g class="fill" data-region="paper">
      <path d="M40 18 L56 18 L56 40 L74 74 C78 82 18 82 22 74 L40 40 Z" fill="var(--sk-paper, #FFFFFF)"/>
    </g>
    <g class="fill" data-region="c1">
      <path d="M30 62 L66 62 L74 74 C78 82 18 82 22 74 Z" fill="var(--sk-c1, #40C057)"/>
    </g>
  </g>
  <g class="ink" fill="none" stroke="currentColor" stroke-width="5" stroke-linecap="round" stroke-linejoin="round">
    <path d="M40 18 L56 18 L56 40 L74 74 C78 82 18 82 22 74 L40 40 Z"/>
    <path d="M30 62 L66 62 L74 74 C78 82 18 82 22 74 Z"/>
    <line x1="36" y1="18" x2="60" y2="18"/>
  </g>
</svg>
