<svg xmlns="http://www.w3.org/2000/svg" viewBox="0 0 96 96" fill="none" data-icon="game-controller" style="color:var(--sk-ink,#1E1E28)">
  <g class="fills" stroke="none">
    <g class="fill" data-region="c1">
      <path d="M28 40 L68 40 C82 40 84 76 70 76 C62 76 60 64 48 64 C36 64 34 76 26 76 C12 76 14 40 28 40 Z" fill="var(--sk-c1, #6C5CE7)"/>
    </g>
    <g class="fill" data-region="paper">
      <circle cx="62" cy="50" r="3.5" fill="var(--sk-paper, #FFFFFF)"/>
      <circle cx="70" cy="56" r="3.5" fill="var(--sk-paper, #FFFFFF)"/>
    </g>
  </g>
  <g class="ink" fill="none" stroke="currentColor" stroke-width="5" stroke-linecap="round" stroke-linejoin="round">
    <path d="M28 40 L68 40 C82 40 84 76 70 76 C62 76 60 64 48 64 C36 64 34 76 26 76 C12 76 14 40 28 40 Z"/>
    <line x1="30" y1="52" x2="42" y2="52" stroke="var(--sk-paper, #FFFFFF)" stroke-width="4"/>
    <line x1="36" y1="46" x2="36" y2="58" stroke="var(--sk-paper, #FFFFFF)" stroke-width="4"/>
    <circle cx="62" cy="50" r="3.5"/>
    <circle cx="70" cy="56" r="3.5"/>
  </g>
</svg>
