<svg xmlns="http://www.w3.org/2000/svg" viewBox="0 0 96 96" fill="none" data-icon="handshake" style="color:var(--sk-ink,#1E1E28)">
  <g class="fills" stroke="none">
    <g class="fill" data-region="c1">
      <path d="M12 36 L34 32 L34 52 L12 56 Z" fill="var(--sk-c1, #339AF0)"/>
    </g>
    <g class="fill" data-region="c2">
      <path d="M84 36 L62 32 L62 52 L84 56 Z" fill="var(--sk-c2, #FF922B)"/>
    </g>
    <g class="fill" data-region="paper">
      <path d="M34 40 L48 36 L62 40 L58 60 L48 66 L38 60 Z" fill="var(--sk-paper, #FFFFFF)"/>
    </g>
  </g>
  <g class="ink" fill="none" stroke="currentColor" stroke-width="5" stroke-linecap="round" stroke-linejoin="round">
    <path d="M12 36 L34 32 L34 52 L12 56 Z"/>
    <path d="M84 36 L62 32 L62 52 L84 56 Z"/>
    <path d="M34 40 L48 36 L62 40 L58 60 L48 66 L38 60 Z"/>
    <line x1="42" y1="46" x2="44" y2="58" stroke="currentColor" stroke-width="3"/>
    <line x1="49" y1="44" x2="49" y2="58" stroke="currentColor" stroke-width="3"/>
    <line x1="56" y1="46" x2="54" y2="58" stroke="currentColor" stroke-width="3"/>
  </g>
</svg>
