<svg xmlns="http://www.w3.org/2000/svg" viewBox="0 0 96 96" fill="none" data-icon="heartbeat" style="color:var(--sk-ink,#1E1E28)">
  <g class="fills" stroke="none">
    <g class="fill" data-region="c1">
      <path d="M48 74 C18 52 14 32 28 22 C40 14 48 26 48 32 C48 26 56 14 68 22 C82 32 78 52 48 74 Z" fill="var(--sk-c1, #FF6B5B)"/>
    </g>
  </g>
  <g class="ink" fill="none" stroke="currentColor" stroke-width="5" stroke-linecap="round" stroke-linejoin="round">
    <path d="M48 74 C18 52 14 32 28 22 C40 14 48 26 48 32 C48 26 56 14 68 22 C82 32 78 52 48 74 Z"/>
    <path d="M22 46 H38 L44 34 L52 58 L58 46 H74" stroke="var(--sk-paper, #FFFFFF)" stroke-width="5"/>
  </g>
</svg>
