<svg xmlns="http://www.w3.org/2000/svg" viewBox="0 0 96 96" fill="none" data-icon="hot-air-balloon" style="color:var(--sk-ink,#1E1E28)">
  <g class="fills" stroke="none">
    <g class="fill" data-region="c1">
      <path d="M24 42 C24 16 72 16 72 42 C72 58 56 68 48 68 C40 68 24 58 24 42 Z" fill="var(--sk-c1, #FF6B5B)"/>
    </g>
    <g class="fill" data-region="c2">
      <rect x="40" y="72" width="16" height="12" rx="2" fill="var(--sk-c2, #FFC933)"/>
    </g>
  </g>
  <g class="ink" fill="none" stroke="currentColor" stroke-width="5" stroke-linecap="round" stroke-linejoin="round">
    <path d="M24 42 C24 16 72 16 72 42 C72 58 56 68 48 68 C40 68 24 58 24 42 Z"/>
    <line x1="48" y1="16" x2="48" y2="68" stroke="var(--sk-c2, #FFC933)" stroke-width="3"/>
    <rect x="40" y="72" width="16" height="12" rx="2"/>
    <line x1="40" y1="68" x2="44" y2="72"/>
    <line x1="56" y1="68" x2="52" y2="72"/>
  </g>
</svg>
