<svg xmlns="http://www.w3.org/2000/svg" viewBox="0 0 96 96" fill="none" data-icon="like" style="color:var(--sk-ink,#1E1E28)">
  <g class="fills" stroke="none">
    <g class="fill" data-region="c1">
      <path d="M30 46 L30 80 L64 80 C70 80 72 60 74 52 C76 44 68 44 60 44 L48 44 C52 34 52 20 44 20 C38 20 40 34 30 46 Z" fill="var(--sk-c1, #FF6B5B)"/>
    </g>
  </g>
  <g class="ink" fill="none" stroke="currentColor" stroke-width="5" stroke-linecap="round" stroke-linejoin="round">
    <path d="M30 46 L30 80 L64 80 C70 80 72 60 74 52 C76 44 68 44 60 44 L48 44 C52 34 52 20 44 20 C38 20 40 34 30 46 Z"/>
  </g>
</svg>
