<svg xmlns="http://www.w3.org/2000/svg" viewBox="0 0 96 96" fill="none" data-icon="money-bag" style="color:var(--sk-ink,#1E1E28)">
  <g class="fills" stroke="none">
    <g class="fill" data-region="c1">
      <path d="M32 34 C28 42 20 60 24 72 C28 82 68 82 72 72 C76 60 68 42 64 34 Z" fill="var(--sk-c1, #FFC933)"/>
    </g>
    <g class="fill" data-region="paper">
      <path d="M36 34 L34 22 H62 L60 34 Z" fill="var(--sk-paper, #FFFFFF)"/>
    </g>
  </g>
  <g class="ink" fill="none" stroke="currentColor" stroke-width="5" stroke-linecap="round" stroke-linejoin="round">
    <path d="M32 34 C28 42 20 60 24 72 C28 82 68 82 72 72 C76 60 68 42 64 34 Z"/>
    <path d="M36 34 L34 22 H62 L60 34 Z"/>
    <path d="M50 46 C50 42 42 42 42 48 C42 54 54 54 54 62 C54 68 46 68 46 64" stroke="currentColor" stroke-width="4"/>
  </g>
</svg>
