<svg xmlns="http://www.w3.org/2000/svg" viewBox="0 0 96 96" fill="none" data-icon="partly-cloudy" style="color:var(--sk-ink,#1E1E28)">
  <g class="fills" stroke="none">
    <g class="fill" data-region="c1">
      <circle cx="36" cy="36" r="14" fill="var(--sk-c1, #FFC933)"/>
    </g>
    <g class="fill" data-region="paper">
      <path d="M44 72 C30 72 30 54 46 54 C46 42 68 42 70 54 C84 52 86 72 72 72 Z" fill="var(--sk-paper, #FFFFFF)"/>
    </g>
  </g>
  <g class="ink" fill="none" stroke="currentColor" stroke-width="5" stroke-linecap="round" stroke-linejoin="round">
    <circle cx="36" cy="36" r="14"/>
    <line x1="36" y1="18" x2="36" y2="10"/>
    <line x1="48.73" y1="23.27" x2="54.38" y2="17.62"/>
    <line x1="54" y1="36" x2="62" y2="36"/>
    <line x1="48.73" y1="48.73" x2="54.38" y2="54.38"/>
    <line x1="36" y1="54" x2="36" y2="62"/>
    <line x1="23.27" y1="48.73" x2="17.62" y2="54.38"/>
    <line x1="18" y1="36" x2="10" y2="36"/>
    <line x1="23.27" y1="23.27" x2="17.62" y2="17.62"/>
    <path d="M44 72 C30 72 30 54 46 54 C46 42 68 42 70 54 C84 52 86 72 72 72 Z"/>
  </g>
</svg>
