<svg xmlns="http://www.w3.org/2000/svg" viewBox="0 0 96 96" fill="none" data-icon="piggy-bank" style="color:var(--sk-ink,#1E1E28)">
  <g class="fills" stroke="none">
    <g class="fill" data-region="c1">
      <path d="M20 52 C20 36 40 30 54 34 C60 26 70 26 70 34 C82 40 82 60 70 66 L68 78 H58 L56 70 H40 L38 78 H28 L26 64 C22 62 20 58 20 52 Z" fill="var(--sk-c1, #E8538F)"/>
    </g>
    <g class="fill" data-region="ink">
      <circle cx="34" cy="48" r="3" fill="currentColor"/>
    </g>
  </g>
  <g class="ink" fill="none" stroke="currentColor" stroke-width="5" stroke-linecap="round" stroke-linejoin="round">
    <path d="M20 52 C20 36 40 30 54 34 C60 26 70 26 70 34 C82 40 82 60 70 66 L68 78 H58 L56 70 H40 L38 78 H28 L26 64 C22 62 20 58 20 52 Z"/>
    <circle cx="34" cy="48" r="3"/>
    <line x1="48" y1="30" x2="60" y2="30"/>
  </g>
</svg>
