<svg xmlns="http://www.w3.org/2000/svg" viewBox="0 0 96 96" fill="none" data-icon="plant" style="color:var(--sk-ink,#1E1E28)">
  <g class="fills" stroke="none">
    <g class="fill" data-region="c1">
      <path d="M48 52 C30 52 26 34 26 34 C46 34 48 52 48 52 Z" fill="var(--sk-c1, #40C057)"/>
      <path d="M48 46 C66 46 70 28 70 28 C50 28 48 46 48 46 Z" fill="var(--sk-c1, #40C057)"/>
    </g>
    <g class="fill" data-region="c2">
      <rect x="38" y="78" width="20" height="6" fill="var(--sk-c2, #FF922B)"/>
    </g>
  </g>
  <g class="ink" fill="none" stroke="currentColor" stroke-width="5" stroke-linecap="round" stroke-linejoin="round">
    <path d="M48 78 L48 44"/>
    <path d="M48 52 C30 52 26 34 26 34 C46 34 48 52 48 52 Z"/>
    <path d="M48 46 C66 46 70 28 70 28 C50 28 48 46 48 46 Z"/>
    <rect x="38" y="78" width="20" height="6"/>
  </g>
</svg>
