<svg xmlns="http://www.w3.org/2000/svg" viewBox="0 0 96 96" fill="none" data-icon="present" style="color:var(--sk-ink,#1E1E28)">
  <g class="fills" stroke="none">
    <g class="fill" data-region="c1">
      <rect x="18" y="40" width="60" height="40" rx="4" fill="var(--sk-c1, #E8538F)"/>
    </g>
    <g class="fill" data-region="c2">
      <rect x="14" y="30" width="68" height="14" rx="3" fill="var(--sk-c2, #FFC933)"/>
      <path d="M48 30 C38 30 34 16 44 18 C50 20 48 30 48 30" fill="var(--sk-c2, #FFC933)"/>
      <path d="M48 30 C58 30 62 16 52 18 C46 20 48 30 48 30" fill="var(--sk-c2, #FFC933)"/>
    </g>
  </g>
  <g class="ink" fill="none" stroke="currentColor" stroke-width="5" stroke-linecap="round" stroke-linejoin="round">
    <rect x="18" y="40" width="60" height="40" rx="4"/>
    <rect x="14" y="30" width="68" height="14" rx="3"/>
    <line x1="48" y1="30" x2="48" y2="80"/>
    <path d="M48 30 C38 30 34 16 44 18 C50 20 48 30 48 30"/>
    <path d="M48 30 C58 30 62 16 52 18 C46 20 48 30 48 30"/>
  </g>
</svg>
