<svg xmlns="http://www.w3.org/2000/svg" viewBox="0 0 96 96" fill="none" data-icon="qr-code" style="color:var(--sk-ink,#1E1E28)">
  <g class="fills" stroke="none">
    <g class="fill" data-region="paper">
      <rect x="18" y="18" width="22" height="22" rx="3" fill="var(--sk-paper, #FFFFFF)"/>
    </g>
    <g class="fill" data-region="c1">
      <circle cx="29" cy="29" r="4" fill="var(--sk-c1, #6C5CE7)"/>
    </g>
    <g class="fill" data-region="paper">
      <rect x="56" y="18" width="22" height="22" rx="3" fill="var(--sk-paper, #FFFFFF)"/>
    </g>
    <g class="fill" data-region="c1">
      <circle cx="67" cy="29" r="4" fill="var(--sk-c1, #6C5CE7)"/>
    </g>
    <g class="fill" data-region="paper">
      <rect x="18" y="56" width="22" height="22" rx="3" fill="var(--sk-paper, #FFFFFF)"/>
    </g>
    <g class="fill" data-region="c1">
      <circle cx="29" cy="67" r="4" fill="var(--sk-c1, #6C5CE7)"/>
      <rect x="56" y="56" width="10" height="10" rx="1" fill="var(--sk-c1, #6C5CE7)"/>
      <rect x="70" y="70" width="8" height="8" rx="1" fill="var(--sk-c1, #6C5CE7)"/>
    </g>
  </g>
  <g class="ink" fill="none" stroke="currentColor" stroke-width="5" stroke-linecap="round" stroke-linejoin="round">
    <rect x="18" y="18" width="22" height="22" rx="3"/>
    <circle cx="29" cy="29" r="4"/>
    <rect x="56" y="18" width="22" height="22" rx="3"/>
    <circle cx="67" cy="29" r="4"/>
    <rect x="18" y="56" width="22" height="22" rx="3"/>
    <circle cx="29" cy="67" r="4"/>
    <rect x="56" y="56" width="10" height="10" rx="1"/>
    <rect x="70" y="70" width="8" height="8" rx="1"/>
  </g>
</svg>
