<svg xmlns="http://www.w3.org/2000/svg" viewBox="0 0 96 96" fill="none" data-icon="quote" style="color:var(--sk-ink,#1E1E28)">
  <g class="fills" stroke="none">
    <g class="fill" data-region="c1">
      <path d="M22 30 L42 30 L42 54 C42 66 30 68 24 66 C34 62 34 54 32 52 L22 52 Z" fill="var(--sk-c1, #6C5CE7)"/>
      <path d="M54 30 L74 30 L74 54 C74 66 62 68 56 66 C66 62 66 54 64 52 L54 52 Z" fill="var(--sk-c1, #6C5CE7)"/>
    </g>
  </g>
  <g class="ink" fill="none" stroke="currentColor" stroke-width="5" stroke-linecap="round" stroke-linejoin="round">
    <path d="M22 30 L42 30 L42 54 C42 66 30 68 24 66 C34 62 34 54 32 52 L22 52 Z"/>
    <path d="M54 30 L74 30 L74 54 C74 66 62 68 56 66 C66 62 66 54 64 52 L54 52 Z"/>
  </g>
</svg>
