<svg xmlns="http://www.w3.org/2000/svg" viewBox="0 0 96 96" fill="none" data-icon="rocket" style="color:var(--sk-ink,#1E1E28)">
  <g class="fills" stroke="none">
    <g class="fill" data-region="paper">
      <path d="M48 14 C64 26 66 48 58 66 H38 C30 48 32 26 48 14 Z" fill="var(--sk-paper, #FFFFFF)"/>
    </g>
    <g class="fill" data-region="c2">
      <circle cx="48" cy="40" r="8" fill="var(--sk-c2, #339AF0)"/>
    </g>
    <g class="fill" data-region="c1">
      <path d="M38 60 L26 74 L40 68 Z" fill="var(--sk-c1, #FF6B5B)"/>
      <path d="M58 60 L70 74 L56 68 Z" fill="var(--sk-c1, #FF6B5B)"/>
    </g>
  </g>
  <g class="ink" fill="none" stroke="currentColor" stroke-width="5" stroke-linecap="round" stroke-linejoin="round">
    <path d="M48 14 C64 26 66 48 58 66 H38 C30 48 32 26 48 14 Z"/>
    <circle cx="48" cy="40" r="8"/>
    <path d="M38 60 L26 74 L40 68 Z"/>
    <path d="M58 60 L70 74 L56 68 Z"/>
    <path d="M42 66 C42 78 54 78 54 66" stroke="var(--sk-c1, #FF6B5B)" stroke-width="4"/>
  </g>
</svg>
