<svg xmlns="http://www.w3.org/2000/svg" viewBox="0 0 96 96" fill="none" data-icon="seedling" style="color:var(--sk-ink,#1E1E28)">
  <g class="fills" stroke="none">
    <g class="fill" data-region="c1">
      <path d="M48 50 C30 50 24 34 24 30 C42 30 48 44 48 50 Z" fill="var(--sk-c1, #40C057)"/>
      <path d="M48 44 C66 44 72 28 72 24 C54 24 48 38 48 44 Z" fill="var(--sk-c1, #40C057)"/>
    </g>
  </g>
  <g class="ink" fill="none" stroke="currentColor" stroke-width="5" stroke-linecap="round" stroke-linejoin="round">
    <path d="M48 78 V44"/>
    <path d="M48 50 C30 50 24 34 24 30 C42 30 48 44 48 50 Z"/>
    <path d="M48 44 C66 44 72 28 72 24 C54 24 48 38 48 44 Z"/>
    <path d="M34 78 H62" stroke="var(--sk-c2, #FF922B)" stroke-width="5"/>
  </g>
</svg>
