<svg xmlns="http://www.w3.org/2000/svg" viewBox="0 0 96 96" fill="none" data-icon="spaceship" style="color:var(--sk-ink,#1E1E28)">
  <g class="fills" stroke="none">
    <g class="fill" data-region="paper">
      <path d="M48 12 C64 30 64 58 58 70 L38 70 C32 58 32 30 48 12 Z" fill="var(--sk-paper, #FFFFFF)"/>
    </g>
    <g class="fill" data-region="c2">
      <circle cx="48" cy="40" r="7" fill="var(--sk-c2, #FF6B5B)"/>
      <path d="M38 62 L26 78 L38 72 Z" fill="var(--sk-c2, #FF6B5B)"/>
      <path d="M58 62 L70 78 L58 72 Z" fill="var(--sk-c2, #FF6B5B)"/>
    </g>
  </g>
  <g class="ink" fill="none" stroke="currentColor" stroke-width="5" stroke-linecap="round" stroke-linejoin="round">
    <path d="M48 12 C64 30 64 58 58 70 L38 70 C32 58 32 30 48 12 Z"/>
    <circle cx="48" cy="40" r="7"/>
    <path d="M38 62 L26 78 L38 72 Z"/>
    <path d="M58 62 L70 78 L58 72 Z"/>
  </g>
</svg>
