<svg xmlns="http://www.w3.org/2000/svg" viewBox="0 0 96 96" fill="none" data-icon="sun-behind-cloud" style="color:var(--sk-ink,#1E1E28)">
  <g class="fills" stroke="none">
    <g class="fill" data-region="c1">
      <circle cx="38" cy="36" r="14" fill="var(--sk-c1, #FFC933)"/>
    </g>
    <g class="fill" data-region="paper">
      <path d="M40 72 C26 72 26 54 42 54 C42 42 66 42 66 56 C80 54 84 74 68 74 Z" fill="var(--sk-paper, #FFFFFF)"/>
    </g>
  </g>
  <g class="ink" fill="none" stroke="currentColor" stroke-width="5" stroke-linecap="round" stroke-linejoin="round">
    <circle cx="38" cy="36" r="14"/>
    <line x1="38" y1="18" x2="38" y2="10"/>
    <line x1="50.73" y1="23.27" x2="56.38" y2="17.62"/>
    <line x1="56" y1="36" x2="64" y2="36"/>
    <line x1="50.73" y1="48.73" x2="56.38" y2="54.38"/>
    <line x1="38" y1="54" x2="38" y2="62"/>
    <line x1="25.27" y1="48.73" x2="19.62" y2="54.38"/>
    <line x1="20" y1="36" x2="12" y2="36"/>
    <line x1="25.27" y1="23.27" x2="19.62" y2="17.62"/>
    <path d="M40 72 C26 72 26 54 42 54 C42 42 66 42 66 56 C80 54 84 74 68 74 Z"/>
  </g>
</svg>
