<svg xmlns="http://www.w3.org/2000/svg" viewBox="0 0 96 96" fill="none" data-icon="team" style="color:var(--sk-ink,#1E1E28)">
  <g class="fills" stroke="none">
    <g class="fill" data-region="c2">
      <circle cx="66" cy="30" r="11" fill="var(--sk-c2, #FF922B)"/>
      <path d="M48 74 C48 58 56 50 66 50 C76 50 84 58 84 74 Z" fill="var(--sk-c2, #FF922B)"/>
    </g>
    <g class="fill" data-region="c1">
      <circle cx="34" cy="34" r="13" fill="var(--sk-c1, #339AF0)"/>
      <path d="M12 82 C12 62 22 54 34 54 C46 54 56 62 56 82 Z" fill="var(--sk-c1, #339AF0)"/>
    </g>
  </g>
  <g class="ink" fill="none" stroke="currentColor" stroke-width="5" stroke-linecap="round" stroke-linejoin="round">
    <circle cx="66" cy="30" r="11"/>
    <path d="M48 74 C48 58 56 50 66 50 C76 50 84 58 84 74 Z"/>
    <circle cx="34" cy="34" r="13"/>
    <path d="M12 82 C12 62 22 54 34 54 C46 54 56 62 56 82 Z"/>
  </g>
</svg>
