<svg xmlns="http://www.w3.org/2000/svg" viewBox="0 0 96 96" fill="none" data-icon="thumbs-up" style="color:var(--sk-ink,#1E1E28)">
  <g class="fills" stroke="none">
    <g class="fill" data-region="paper">
      <rect x="16" y="46" width="16" height="32" rx="3" fill="var(--sk-paper, #FFFFFF)"/>
    </g>
    <g class="fill" data-region="c1">
      <path d="M32 48 L44 22 C52 22 52 34 48 44 H72 C80 44 80 54 74 56 C80 60 76 68 70 68 C74 74 68 80 62 78 H40 L32 74 Z" fill="var(--sk-c1, #40C057)"/>
    </g>
  </g>
  <g class="ink" fill="none" stroke="currentColor" stroke-width="5" stroke-linecap="round" stroke-linejoin="round">
    <rect x="16" y="46" width="16" height="32" rx="3"/>
    <path d="M32 48 L44 22 C52 22 52 34 48 44 H72 C80 44 80 54 74 56 C80 60 76 68 70 68 C74 74 68 80 62 78 H40 L32 74 Z"/>
  </g>
</svg>
