<svg xmlns="http://www.w3.org/2000/svg" viewBox="0 0 96 96" fill="none" data-icon="ticket" style="color:var(--sk-ink,#1E1E28)">
  <g class="fills" stroke="none">
    <g class="fill" data-region="c1">
      <path d="M16 34 L80 34 A6 6 0 0 0 80 46 L80 62 A6 6 0 0 0 80 74 L16 74 A6 6 0 0 0 16 62 L16 46 A6 6 0 0 0 16 34 Z" fill="var(--sk-c1, #FF922B)"/>
    </g>
  </g>
  <g class="ink" fill="none" stroke="currentColor" stroke-width="5" stroke-linecap="round" stroke-linejoin="round">
    <path d="M16 34 L80 34 A6 6 0 0 0 80 46 L80 62 A6 6 0 0 0 80 74 L16 74 A6 6 0 0 0 16 62 L16 46 A6 6 0 0 0 16 34 Z"/>
    <line x1="52" y1="34" x2="52" y2="74" stroke="var(--sk-paper, #FFFFFF)"/>
  </g>
</svg>
