<svg xmlns="http://www.w3.org/2000/svg" viewBox="0 0 96 96" fill="none" data-icon="tooth" style="color:var(--sk-ink,#1E1E28)">
  <g class="fills" stroke="none">
    <g class="fill" data-region="c1">
      <path d="M26 26 C34 18 44 22 48 26 C52 22 62 18 70 26 C78 36 72 58 66 74 C62 82 56 70 54 58 C52 50 44 50 42 58 C40 70 34 82 30 74 C24 58 18 36 26 26 Z" fill="var(--sk-c1, #FFFFFF)"/>
    </g>
  </g>
  <g class="ink" fill="none" stroke="currentColor" stroke-width="5" stroke-linecap="round" stroke-linejoin="round">
    <path d="M26 26 C34 18 44 22 48 26 C52 22 62 18 70 26 C78 36 72 58 66 74 C62 82 56 70 54 58 C52 50 44 50 42 58 C40 70 34 82 30 74 C24 58 18 36 26 26 Z"/>
  </g>
</svg>
