<svg xmlns="http://www.w3.org/2000/svg" viewBox="0 0 96 96" fill="none" data-icon="train" style="color:var(--sk-ink,#1E1E28)">
  <g class="fills" stroke="none">
    <g class="fill" data-region="c1">
      <path d="M24 24 L72 24 C76 24 76 60 72 60 L24 60 C20 60 20 24 24 24 Z" fill="var(--sk-c1, #FF6B5B)"/>
    </g>
    <g class="fill" data-region="c2">
      <rect x="30" y="34" width="36" height="16" rx="2" fill="var(--sk-c2, #339AF0)"/>
    </g>
    <g class="fill" data-region="ink">
      <circle cx="34" cy="68" r="6" fill="currentColor"/>
      <circle cx="62" cy="68" r="6" fill="currentColor"/>
    </g>
  </g>
  <g class="ink" fill="none" stroke="currentColor" stroke-width="5" stroke-linecap="round" stroke-linejoin="round">
    <path d="M24 24 L72 24 C76 24 76 60 72 60 L24 60 C20 60 20 24 24 24 Z"/>
    <rect x="30" y="34" width="36" height="16" rx="2"/>
    <circle cx="34" cy="68" r="6"/>
    <circle cx="62" cy="68" r="6"/>
    <line x1="28" y1="78" x2="40" y2="88"/>
    <line x1="68" y1="78" x2="56" y2="88"/>
  </g>
</svg>
